HIERARCHY
ROOT SpineBase
{
  OFFSET 0.000000 0.000000 0.000000
  CHANNELS 6 Xposition Yposition Zposition Zrotation Xrotation Yrotation
  JOINT SpineMid
  {
    OFFSET 0.000000 29.332304 0.000000
    CHANNELS 3 Zrotation Xrotation Yrotation
    JOINT SpineShoulder
    {
      OFFSET 0.152221 21.872795 -1.241248
      CHANNELS 3 Zrotation Xrotation Yrotation
      JOINT Neck
      {
        OFFSET 0.035728 7.257086 -0.795989
        CHANNELS 3 Zrotation Xrotation Yrotation
        JOINT Head
        {
          OFFSET -5.579095 12.562540 0.945731
          CHANNELS 3 Zrotation Xrotation Yrotation
          End Site
          {
            OFFSET 0 0 0
          }
        }
      }
      JOINT ShoulderLeft
      {
        OFFSET -13.535945 -5.461451 10.425543
        CHANNELS 3 Zrotation Xrotation Yrotation
        JOINT ElbowLeft
        {
          OFFSET -1.454582 -26.441615 2.227344
          CHANNELS 3 Zrotation Xrotation Yrotation
          JOINT WristLeft
          {
            OFFSET -0.623442 -19.375335 -4.416764
            CHANNELS 3 Zrotation Xrotation Yrotation
            JOINT HandLeft
            {
              OFFSET -1.565010 -4.317643 -2.333342
              CHANNELS 3 Zrotation Xrotation Yrotation
              JOINT HandTipLeft
              {
                OFFSET -0.005902 -5.939764 -2.549107
                CHANNELS 3 Zrotation Xrotation Yrotation
                End Site
                {
                  OFFSET 0 0 0
                }
              }
              JOINT ThumbLeft
              {
                OFFSET 2.555861 1.699557 -4.479101
                CHANNELS 3 Zrotation Xrotation Yrotation
                End Site
                {
                  OFFSET 0 0 0
                }
              }
            }
          }
        }
      }
      JOINT ShoulderRight
      {
        OFFSET 11.534294 -2.834067 -11.349252
        CHANNELS 3 Zrotation Xrotation Yrotation
        JOINT ElbowRight
        {
          OFFSET 5.475386 -24.220086 -2.965182
          CHANNELS 3 Zrotation Xrotation Yrotation
          JOINT WristRight
          {
            OFFSET -5.048076 -19.176121 -3.303797
            CHANNELS 3 Zrotation Xrotation Yrotation
            JOINT HandRight
            {
              OFFSET -1.326391 -6.280077 -0.392663
              CHANNELS 3 Zrotation Xrotation Yrotation
              JOINT HandTipRight
              {
                OFFSET -1.629739 -7.084969 -0.417177
                CHANNELS 3 Zrotation Xrotation Yrotation
                End Site
                {
                  OFFSET 0 0 0
                }
              }
              JOINT ThumbRight
              {
                OFFSET 1.957473 -0.607485 -2.440194
                CHANNELS 3 Zrotation Xrotation Yrotation
                End Site
                {
                  OFFSET 0 0 0
                }
              }
            }
          }
        }
      }
    }
  }
  JOINT HipLeft
  {
    OFFSET -5.550330 0.149080 0.837797
    CHANNELS 3 Zrotation Xrotation Yrotation
    JOINT KneeLeft
    {
      OFFSET -2.969832 -28.912331 1.176966
      CHANNELS 3 Zrotation Xrotation Yrotation
      JOINT AnkleLeft
      {
        OFFSET 3.850729 -30.679843 7.085650
        CHANNELS 3 Zrotation Xrotation Yrotation
        JOINT FootLeft
        {
          OFFSET -6.538314 -3.569142 -10.620919
          CHANNELS 3 Zrotation Xrotation Yrotation
          End Site
          {
            OFFSET 0 0 0
          }
        }
      }
    }
  }
  JOINT HipRight
  {
    OFFSET 5.197950 1.729242 -7.474046
    CHANNELS 3 Zrotation Xrotation Yrotation
    JOINT KneeRight
    {
      OFFSET 11.692268 -26.269440 -2.262840
      CHANNELS 3 Zrotation Xrotation Yrotation
      JOINT AnkleRight
      {
        OFFSET 8.705209 -33.168746 2.907734
        CHANNELS 3 Zrotation Xrotation Yrotation
        JOINT FootRight
        {
          OFFSET -6.825198 -3.537874 -10.579552
          CHANNELS 3 Zrotation Xrotation Yrotation
          End Site
          {
            OFFSET 0 0 0
          }
        }
      }
    }
  }
}
MOTION
Frames: 12
Frame Time: 0.033333
20.296240 64.257732 334.681230 -0.000000 0.000000 37.715441 -0.000000 0.000000 -37.715441 -0.000000 0.000000 0.000000 -0.000000 0.000000 0.000000 0.000000 0.000000 0.000000 -0.000000 0.000000 0.000000 -0.000000 0.000000 0.000000 -0.000000 0.000000 0.000000 -0.000000 0.000000 0.000000 0.000000 0.000000 0.000000 0.000000 0.000000 0.000000 -0.000000 0.000000 0.000000 -0.000000 0.000000 0.000000 -0.000000 0.000000 0.000000 -0.000000 0.000000 0.000000 0.000000 0.000000 0.000000 0.000000 0.000000 0.000000 -0.000000 0.000000 -37.715441 -0.000000 0.000000 0.000000 -0.000000 0.000000 0.000000 0.000000 0.000000 0.000000 -0.000000 0.000000 -37.715441 -0.000000 0.000000 0.000000 -0.000000 0.000000 0.000000 0.000000 0.000000 0.000000
19.842897 63.552481 334.852379 0.486230 -0.422058 37.556916 -0.128208 0.630961 -37.554419 -0.000000 0.000000 0.000000 0.684644 1.469544 0.590205 0.000000 0.000000 0.000000 0.983674 -0.088338 0.088517 -2.273836 1.507947 0.179219 3.901913 -0.082071 -2.101571 -5.043029 -6.198000 2.856841 0.000000 0.000000 0.000000 0.000000 0.000000 0.000000 3.005647 0.269225 -0.312312 -0.118836 0.462226 -0.401251 -2.996541 -2.104141 0.962865 3.755524 0.507273 -0.378050 0.000000 0.000000 0.000000 0.000000 0.000000 0.000000 -2.604185 1.061724 -37.488650 -2.305889 0.734031 -1.082607 4.522578 0.519118 1.085434 0.000000 0.000000 0.000000 1.500765 0.929760 -37.127050 0.220854 -1.370030 -0.350298 -1.340164 0.140411 -0.079249 0.000000 0.000000 0.000000
19.080630 62.966488 335.154561 0.964915 -0.764889 37.229933 0.625646 0.242243 -37.155916 0.029909 0.283918 0.067775 -0.256913 2.414905 0.854761 0.000000 0.000000 0.000000 0.448987 -0.232726 0.015919 -4.007798 2.740598 0.318870 7.491789 -0.590059 -3.842263 -8.699274 -10.889799 4.895546 0.000000 0.000000 0.000000 0.000000 0.000000 0.000000 4.136167 0.262713 -0.739342 0.114880 0.973517 -0.797968 -5.511988 -3.793838 1.756943 7.149801 0.803722 -0.776761 0.000000 0.000000 0.000000 0.000000 0.000000 0.000000 -4.740274 1.894527 -37.044426 -4.329027 1.543003 -1.868654 8.261012 0.855228 1.942368 0.000000 0.000000 0.000000 2.797420 1.791043 -36.443127 0.403957 -2.457134 -0.598749 -2.508165 -0.323413 0.525757 0.000000 0.000000 0.000000
18.009438 62.499753 335.587777 1.437276 -1.029900 36.724841 0.859166 0.360749 -36.618960 0.032659 0.393694 0.095533 -0.718875 2.952697 1.039978 0.000000 0.000000 0.000000 0.491538 -0.327443 0.009474 -5.201414 3.700594 0.398648 10.608574 -1.546744 -5.138876 -11.114106 -13.917939 6.330275 0.000000 0.000000 0.000000 0.000000 0.000000 0.000000 5.503918 0.107862 -1.045140 0.649219 1.525409 -1.181650 -7.531730 -5.031926 2.397392 10.090741 0.922816 -1.134656 0.000000 0.000000 0.000000 0.000000 0.000000 0.000000 -6.419641 2.489338 -36.407889 -5.939613 2.398239 -2.364676 11.104584 0.951439 2.572748 0.000000 0.000000 0.000000 3.864502 2.586521 -35.648186 0.559419 -3.238334 -0.754795 -3.502952 -0.655629 0.395698 0.000000 0.000000 0.000000
16.629322 62.152276 336.152027 1.904494 -1.218139 36.033486 1.039323 0.479698 -35.898829 0.027180 0.482373 0.119969 -1.391416 3.057458 1.078049 0.000000 0.000000 0.000000 0.410145 -0.407688 -0.008042 -5.854799 4.391053 0.404499 13.120171 -2.910228 -5.943278 -12.374992 -15.258521 7.238295 0.000000 0.000000 0.000000 0.000000 0.000000 0.000000 6.429720 -0.221325 -1.299728 1.436952 2.112624 -1.546321 -9.046037 -5.790982 2.893367 12.497854 0.899085 -1.399782 0.000000 0.000000 0.000000 0.000000 0.000000 0.000000 -7.644203 2.844630 -35.597846 -7.078185 3.270685 -2.596155 13.002526 0.772971 2.986136 0.000000 0.000000 0.000000 4.681822 3.316066 -34.727438 0.693920 -3.696862 -0.827673 -4.316474 -1.104752 -0.001703 0.000000 0.000000 0.000000
14.940282 61.924057 336.847310 2.367724 -1.330291 35.149420 1.165473 0.599514 -34.988996 0.013380 0.550132 0.141542 -2.273983 2.734373 0.969203 0.000000 0.000000 0.000000 0.203445 -0.473528 -0.037673 -5.967979 4.813906 0.328337 14.939828 -4.587744 -6.252621 -12.534970 -14.971680 7.585340 0.000000 0.000000 0.000000 0.000000 0.000000 0.000000 6.932837 -0.716012 -1.503479 2.439825 2.733223 -1.888675 -10.050498 -6.052607 3.246855 14.307562 0.761514 -1.532541 0.000000 0.000000 0.000000 0.000000 0.000000 0.000000 -8.403072 2.965361 -34.627107 -7.740156 4.135023 -2.597486 14.507328 -0.309458 2.793789 0.000000 0.000000 0.000000 5.235057 3.976082 -33.667231 0.810486 -3.822267 -0.826029 -5.282152 -1.065961 -0.801367 0.000000 0.000000 0.000000
12.636110 61.610616 337.805801 3.095260 -1.319390 33.987970 1.268859 0.810862 -33.796212 -0.032022 0.628211 0.169033 -3.637950 1.865703 0.701603 0.000000 0.000000 0.000000 0.050603 -0.351467 -0.092004 -5.791685 5.165113 0.082466 17.678145 -8.415799 -6.048747 -11.008319 -10.855719 6.952301 0.000000 0.000000 0.000000 0.000000 0.000000 0.000000 7.421908 -1.425846 -1.705026 4.290819 3.513055 -2.518822 -11.478221 -5.776113 3.606066 16.065720 0.277646 -1.409606 0.000000 0.000000 0.000000 0.000000 0.000000 0.000000 -8.730713 2.355284 -33.385733 -8.275215 5.836248 -2.226823 14.527004 -1.524284 2.145713 0.000000 0.000000 0.000000 5.795617 4.608321 -32.348173 1.004784 -3.515108 -0.662365 -5.970036 -2.703225 -1.702291 0.000000 0.000000 0.000000
9.999131 61.559781 338.902799 3.684106 -1.253999 32.418886 1.245276 0.959046 -32.204192 -0.067311 0.650868 0.189724 -5.116031 0.669853 0.259011 0.000000 0.000000 0.000000 -0.603377 -0.373832 -0.172019 -4.054284 5.104921 -0.325544 17.710459 -9.857599 -5.727985 -8.818052 -7.406059 5.701779 0.000000 0.000000 0.000000 0.000000 0.000000 0.000000 7.099582 -2.345036 -1.842076 6.061469 4.289091 -2.933381 -12.322319 -4.895801 3.660486 17.530452 0.822609 -1.634995 0.000000 0.000000 0.000000 0.000000 0.000000 0.000000 -8.476880 1.962562 -31.813689 -8.071798 6.860020 -1.800907 13.650563 -2.645919 0.934250 0.000000 0.000000 0.000000 5.706686 5.248267 -30.666996 1.363109 -2.839796 -0.473259 -6.492000 -3.703413 -3.092690 0.000000 0.000000 0.000000
7.232668 61.749647 340.038301 3.957215 -1.181813 30.696049 1.171415 1.039539 -30.472634 -0.105557 0.632842 0.196631 -6.770404 -0.927238 -0.377683 0.000000 0.000000 0.000000 -1.414663 -0.528245 -0.244474 -1.636223 4.542655 -0.721891 15.164057 -10.429024 -4.584386 -5.029702 -6.127498 3.368016 0.000000 0.000000 0.000000 0.000000 0.000000 0.000000 6.207313 -3.329501 -1.910800 7.627485 5.278697 -3.259737 -12.398248 -3.763498 3.483953 18.291074 0.057716 -1.156694 0.000000 0.000000 0.000000 0.000000 0.000000 0.000000 -7.000497 1.520124 -30.178232 -7.625496 7.197922 -1.324685 11.791054 -3.611083 -0.861649 0.000000 0.000000 0.000000 5.401302 5.668681 -28.877217 1.305914 -2.045259 -0.357644 -6.189952 -4.456462 -4.702386 0.000000 0.000000 0.000000
4.807346 62.180433 341.051561 4.029035 -1.083089 29.076191 1.049186 1.056437 -28.852667 -0.139771 0.592281 0.194682 -8.322802 -2.867522 -1.230249 0.000000 0.000000 0.000000 -2.179175 -0.838445 -0.294536 0.231934 3.498996 -0.889515 12.730962 -10.242200 -3.554807 -2.291613 -4.630454 1.223398 0.000000 0.000000 0.000000 0.000000 0.000000 0.000000 4.648622 -4.844153 -2.003766 8.516823 6.793744 -3.302123 -10.803828 -2.354537 3.031350 17.721279 0.916191 -1.322959 0.000000 0.000000 0.000000 0.000000 0.000000 0.000000 -4.938529 1.365303 -28.694564 -7.129065 6.547999 -0.941959 9.608757 -4.008815 -2.650633 0.000000 0.000000 0.000000 4.912866 5.929509 -27.204931 1.021242 -1.436729 -0.339455 -6.661064 -3.339479 -4.851068 0.000000 0.000000 0.000000
2.505259 62.696898 341.915240 3.777674 -0.968841 27.357896 1.025812 1.037192 -27.148547 -0.126957 0.568038 0.186585 -9.673562 -4.916233 -2.165641 0.000000 0.000000 0.000000 -2.791008 -1.545128 -0.307976 1.583334 2.928067 -0.952404 12.563978 -11.774121 -2.520806 -2.964995 -1.986545 0.203958 0.000000 0.000000 0.000000 0.000000 0.000000 0.000000 2.973444 -6.192834 -2.063575 8.739517 8.008802 -3.070448 -8.667660 -1.363108 2.550317 16.645578 2.674748 -1.971492 0.000000 0.000000 0.000000 0.000000 0.000000 0.000000 -2.309543 0.527462 -27.055526 -8.222864 6.327897 -0.710264 8.530398 -4.240817 -4.454593 0.000000 0.000000 0.000000 4.035382 5.777455 -25.538446 0.341022 -1.031563 -0.419895 -3.301791 -4.911088 -7.698513 0.000000 0.000000 0.000000
0.759981 63.296501 342.462249 3.382322 -0.775368 25.838432 0.998064 1.008700 -25.652883 -0.116552 0.535720 0.171270 -10.537675 -6.662707 -2.970975 0.000000 0.000000 0.000000 -3.463738 -2.609273 -0.322439 2.969519 2.326497 -0.977326 11.664511 -12.497402 -1.424867 -4.999160 0.104786 0.123644 0.000000 0.000000 0.000000 0.000000 0.000000 0.000000 1.706153 -7.209658 -2.087055 7.698778 8.786096 -2.444762 -6.585625 -0.563432 1.985213 15.673023 4.306941 -2.553521 0.000000 0.000000 0.000000 0.000000 0.000000 0.000000 -0.606501 -1.011688 -25.450819 -8.851448 7.347639 -0.448981 7.636781 -4.559108 -6.258772 0.000000 0.000000 0.000000 2.438263 5.331026 -24.146618 -0.176093 -0.725381 -0.532471 0.380660 -5.681570 -10.281062 0.000000 0.000000 0.000000
